<?xml version="1.0" standalone="no"?>
<!DOCTYPE svg PUBLIC "-//W3C//DTD SVG 20010904//EN"
 "http://www.w3.org/TR/2001/REC-SVG-20010904/DTD/svg10.dtd">
<svg version="1.0" xmlns="http://www.w3.org/2000/svg"
 width="499.000000pt" height="499.000000pt" viewBox="0 0 499.000000 499.000000"
 preserveAspectRatio="xMidYMid meet">
<metadata>
Created by potrace 1.14, written by Peter Selinger 2001-2017
</metadata>
<g transform="translate(0.000000,499.000000) scale(0.100000,-0.100000)"
fill="#000000" stroke="none">
<path d="M3385 4918 c-74 -7 -318 -53 -465 -88 -132 -31 -402 -120 -515 -170
-22 -10 -69 -30 -105 -45 -323 -135 -709 -387 -969 -630 -241 -225 -416 -431
-589 -692 -139 -209 -182 -283 -291 -500 -193 -386 -299 -689 -336 -966 -4
-27 -9 -59 -11 -70 -9 -44 -11 -334 -4 -422 26 -282 109 -518 252 -712 81
-111 241 -259 333 -309 11 -6 41 -23 66 -37 111 -63 298 -121 474 -147 79 -12
352 -16 403 -6 15 3 52 8 82 11 79 9 159 23 290 51 571 125 1158 431 1626 849
258 231 468 472 663 764 55 83 101 153 101 155 0 3 19 37 43 78 295 503 478
1149 478 1688 0 486 -112 788 -367 991 -147 117 -317 176 -584 204 -101 10
-484 13 -575 3z"/>
</g>
</svg>
